<svg xmlns="http://www.w3.org/2000/svg" id="Camada_1" data-name="Camada 1" viewBox="0 0 400 152"><metadata></metadata><defs><style>      .cls-1 {        isolation: isolate;      }      .cls-2 {        fill: #efbe4e;      }    </style></defs><g><g class="cls-1"><path class="cls-2" d="M279,116.7c-2.5,0-4.4-.7-5.6-2.1s-1.9-3.4-1.9-6v-4.4c0-2.6.6-4.5,1.9-5.9,1.2-1.4,3.1-2.1,5.6-2.1s1.5,0,2.1.2c.6.1,1.2.3,1.7.5s.9.4,1.3.7l.2,2.8c-.6-.4-1.3-.8-2.1-1.1s-1.7-.5-2.8-.5c-1.6,0-2.8.5-3.6,1.4-.8.9-1.2,2.3-1.2,4v4.2c0,1.7.4,3,1.2,4s2,1.4,3.7,1.4,2-.2,2.8-.5,1.5-.7,2.2-1.1l-.2,2.9c-.4.2-.8.5-1.3.7s-1.1.4-1.8.5-1.4.2-2.2.2v.2Z"></path></g><g class="cls-1"><path class="cls-2" d="M286.8,116.3l6-19.7h4.8l6,19.7h-3.1l-5.1-17.6h-.4l-5.1,17.6h-3.1,0ZM290.7,110.8v-2.6h8.9v2.6h-8.9Z"></path><path class="cls-2" d="M307.1,116.3v-19.7h3v19.7h-3ZM309.1,110v-2.6h5.4c1.2,0,2.1-.3,2.7-.9s.8-1.5.8-2.5v-1.3c0-1.1-.3-2-.8-2.6s-1.4-.9-2.7-.9h-5.5v-2.5h5.5c2.3,0,3.9.5,5,1.6s1.6,2.5,1.6,4.4v1.5c0,1.9-.5,3.3-1.6,4.4s-2.7,1.6-5,1.6h-5.5l.1-.2Z"></path><path class="cls-2" d="M328.3,116.3h-3.1v-19.7h3.1v19.7Z"></path></g><g class="cls-1"><path class="cls-2" d="M331.1,99.2v-2.6h14.7v2.6h-14.7ZM336.9,116.3v-19.1h3.1v19.1h-3.1Z"></path></g><g class="cls-1"><path class="cls-2" d="M345.2,116.3l6-19.7h4.8l6,19.7h-3.1l-5.1-17.6h-.4l-5.1,17.6h-3.1,0ZM349.2,110.8v-2.6h8.9v2.6h-8.9Z"></path><path class="cls-2" d="M368.7,116.3h-3.1v-19.7h3.1v19.7ZM367.3,113.7h10.3v2.6h-10.3v-2.6Z"></path></g></g><path class="cls-2" d="M131.5,68.5c-28.7-37.1-75.3-37.1-104,0l-5.5,7.1,5.5,7.1c28.7,37.1,75.3,37.1,104,0l5.5-7.1-5.5-7.1ZM101.2,75c.2,5.7-1.8,11.1-5.7,15.3-3.9,4.2-9.2,6.6-14.9,6.8h-.8c-5.4,0-10.6-2-14.5-5.7-3.2-2.9-5.3-6.7-6.3-10.9-.1-.5.2-1,.7-1.1.2,0,.5,0,.7.1s.4.3.4.6c.9,3.8,2.8,7.3,5.7,10,3.8,3.5,8.8,5.4,14,5.2s10-2.4,13.6-6.2c3.5-3.8,5.4-8.8,5.2-14-.2-5.2-2.4-10-6.2-13.5-3.8-3.5-8.7-5.4-14-5.2-5.2.2-10,2.4-13.6,6.2-.9.9-1.6,1.9-2.3,3-.3.4-.9.6-1.3.3-.2-.1-.4-.3-.4-.6,0-.2,0-.5.1-.7.7-1.2,1.6-2.3,2.5-3.3,3.9-4.2,9.2-6.6,14.9-6.8,5.7-.2,11.1,1.8,15.3,5.7,4.2,3.9,6.6,9.2,6.8,14.9h0l.1-.1ZM84.9,73.9c1.2,0,2.2-.6,2.7-1.6.5,1.1.8,2.2.8,3.5,0,4.6-3.7,8.3-8.3,8.3s-8.3-3.7-8.3-8.3,3.7-8.3,8.3-8.3,2.3.2,3.3.7c-.9.5-1.5,1.5-1.5,2.7,0,1.7,1.4,3.1,3.1,3h-.1ZM85.6,68.7c.2,0,.3,0,.5.2v.8s-.2-.1-.4-.2-.4,0-.6,0h-.5c-.1,0,0,0,0,.1h0v.1l.2.1s.2,0,.4.1c.2,0,.4.2.6.2s.3.2.4.3.1.3.1.5h0c0,.4-.1.7-.3.8-.1.1-.4.2-.6.2v.5h-.8v-.5h-.8v-.9s.2.1.4.2h1q.1,0,.1-.2h0v-.2l-.2-.1c-.2-.1-.2,0-.3-.1-.2,0-.4-.2-.6-.2s-.3-.2-.4-.3-.1-.3-.1-.5h0c0-.4.1-.6.3-.8.2-.1.3-.2.6-.2v-.5h.8v.5h.2v.1ZM82.1,62.7c-3.5-.4-7,.6-9.7,2.7-2.8,2.2-4.5,5.3-4.9,8.8s.6,7,2.8,9.7,5.3,4.5,8.8,4.9c2.7.3,5.4-.2,7.8-1.5,2.3-1.3,4.2-3.2,5.5-5.5.2-.5.8-.6,1.3-.4.2.1.4.3.5.6s0,.5,0,.7c-1.4,2.7-3.6,4.9-6.2,6.3-2.2,1.2-4.7,1.8-7.1,1.8s-1.2,0-1.8-.1c-4-.5-7.6-2.5-10.1-5.7s-3.6-7.1-3.2-11.1c.5-4,2.5-7.6,5.7-10.1s7.1-3.6,11.1-3.1c5.6.7,10.4,4.4,12.4,9.7v.7c0,.2-.3.4-.5.5-.5.2-1,0-1.2-.6-1.8-4.7-5.9-7.9-10.8-8.5h0l-.4.2ZM101.4,97.2c-5.7,5.7-13.3,8.8-21.4,8.8s-15.7-3.1-21.4-8.8-8.8-13.3-8.8-21.4,3.1-15.7,8.8-21.4c5.7-5.7,13.3-8.8,21.4-8.8s2.3,0,3.4.2c.2,0,.5.2.6.3.2.2.2.5.2.7s-.2.5-.3.6-.4.2-.7.2c-1.1-.1-2.2-.2-3.2-.2-7.6,0-14.7,3-20,8.3s-8.3,12.5-8.3,20,3,14.7,8.3,20c5.3,5.3,12.5,8.3,20,8.3s14.7-2.9,20-8.3c5.3-5.3,8.3-12.5,8.3-20s-1.9-12-5.6-16.9c-.2-.2-.2-.5-.2-.7s.2-.5.4-.6c.2-.2.4-.2.7-.2.2,0,.5.2.6.4,3.9,5.2,6,11.5,6,18.1s-3.1,15.7-8.8,21.4h0Z"></path><g><path class="cls-2" d="M203.2,84l-6.2-10.5h0l-4.3-7.4-8.1-13.6-18.5,31.4h-10.8l23.3-38.8c1.1-1.8,3.1-2.9,5.2-2.9h5.7l25.1,41.8h-11.4Z"></path><path class="cls-2" d="M253.4,39.8h9.2v24.7c0,13.7-6.9,20.1-24.3,20.1s-24.3-6.4-24.3-20.1v-24.7h9.8v24.7c0,7.8,3.4,10.8,14.8,10.8s14.7-3,14.7-10.8v-24.7h.1Z"></path><path class="cls-2" d="M266.1,39.8h11.5l18.5,31.6,18.4-31.6h10.9l-25.1,41.8h-9.1l-25.1-41.8h0Z"></path><path class="cls-2" d="M338,72.1v-9.2h23c4.6,0,7.4-2.7,7.4-6.8s-2.7-6.8-7.4-6.8h-22v34.7h-9.4v-44.2h31.4c10.5,0,16.6,6.2,16.6,16s-6.1,16.3-16.6,16.3h-23Z"></path></g><path class="cls-2" d="M154,104.8h109v3.9h-105.1c-2.1,0-3.9-1.7-3.9-3.9Z"></path></svg>