<svg xmlns="http://www.w3.org/2000/svg" id="Camada_2" data-name="Camada 2" viewBox="0 0 214.78 124.2"><defs><style>      .cls-1 {        fill-rule: evenodd;      }      .cls-1, .cls-2 {        fill: #056daf;      }    </style></defs><g id="Camada_1-2" data-name="Camada 1"><g><g><path class="cls-2" d="M110.23,113.03c1.03-.11,2.08-.02,3.09.24.24.06.43.23.54.45s.12.49.03.72c-1.09,2.77-2.96,7.37-6.11,8.73-.81.36-1.68.49-2.53.39-.85-.1-1.68-.42-2.38-.94-1.76-1.23-2.83-3.46-3.45-5.9-1.43-5.59-.75-13.26.72-16.3.77-1.64,1.85-2.91,3.14-3.67,1.03-.61,2.17-.89,3.36-.8,1.09.09,2.19.49,3.24,1.22,1.52,1.04,2.93,2.75,4.11,5.13.21.42.06.94-.35,1.16-.47.26-1.11.62-1.81,1.01-1.07.6-2.26,1.28-3.09,1.71-.21.11-.45.12-.67.04-.22-.09-.39-.27-.48-.49-.02-.04-.03-.08-.05-.12-.43-1.11-.73-1.87-1.09-2.28-.15-.17-.25-.22-.32-.23-.06-.01-.2-.02-.44.09-.88,1.34-1.62,4.62-1.78,8.01-.13,2.67.13,5.09.77,6.39.19.39.39.62.57.73.32.22.57.25.79.22.38-.06.84-.36,1.36-1,.84-1.04,1.57-2.63,2.11-3.99.12-.29.38-.5.68-.53Z"></path><path class="cls-2" d="M88.56,96.38c.19-1.76.55-3.87,1.49-4.76.61-.38,1.02-.44,1.27-.39.21.04.41.17.6.44.42.6.66,1.73.62,3.2l-3.98,1.5ZM89.21,108.7c1.12.43,2.31.35,3.41-.11,1.01-.42,1.95-1.16,2.73-2.13,1-1.23,1.76-2.85,2.12-4.72.04-.23-.03-.47-.21-.62-.17-.16-.41-.22-.64-.16-.84.23-1.48.4-1.96.53-.09-.25-.32-.43-.6-.44-.37-.02-.69.27-.71.64,0,0,0,0,0,0h0s0,0,0,0c0,0,0,0,0,0,0,.14-.01.16-.02.19-.01.07-.02.14-.03.27-.01.04-.02.07-.03.11-.16.85-.48,1.61-.95,2.15-.3.34-.67.61-1.12.76-.36.09-.62.05-.83-.05-.33-.16-.65-.54-.92-1.18-.46-1.07-.68-2.56-.81-3.85l-.02-.2c2.72-.8,5.31-2.02,7.66-3.61.17-.11.28-.3.29-.5.17-1.8-.28-4.53-.65-6.07-.25-1.05-.88-2.14-1.79-2.91-.68-.58-1.53-1-2.52-1.07-1.49-.11-2.77.3-3.82,1.1-1.66,1.26-2.67,3.44-3.15,5.88-.79,3.97-.26,8.94,1.46,12.77.78,1.65,1.86,2.71,3.1,3.19Z"></path><path class="cls-2" d="M118.88,93.44c.7.18,1.48.06,2.18-.26.71-.31,1.4-.84,1.98-1.53.58-.7,1.05-1.59,1.29-2.63.23-.99.25-1.84-.08-2.46-.19-.34-.47-.58-.82-.7-.29-.1-.59-.11-.87-.08-.64.08-1.34.43-1.97.85-1.34.91-2.79,2.46-3.25,3.82-.15.45-.22.97-.05,1.47.13.39.34.72.63.98.28.26.62.43.97.53ZM115.82,111.99c.12.17.31.29.52.31h0c.82.07,1.64.08,2.45.03.31-.02.57-.24.65-.54,2.49-9.31,3.11-13.25,3.26-14.82.02-.2-.05-.4-.19-.55-.14-.15-.33-.24-.54-.24-1.22,0-3.26,0-4.7-.06-.21,0-.41.07-.55.22-.14.15-.22.35-.2.56.63,7.69-.28,12.44-.83,14.48-.06.21-.02.43.11.6Z"></path><path class="cls-2" d="M130.21,118.65c-.42-.23-.81-.71-1.1-1.51-.52-1.42-.64-3.55-.34-5.93.4-3.16,1.51-6.57,3.18-8.99.83-1.2,1.77-2.13,2.78-2.67.02-.01.04-.02.06-.04.64-.43,1.16-.66,1.56-.74.24-.05.43-.05.58-.02.16.03.31.1.44.21.19.16.38.41.54.8.57,1.39.57,3.9.07,6.78-.78,4.46-2.67,9.28-4.8,11.31-.6.57-1.15.85-1.65.91-.02,0-.05,0-.07.01-.02,0-.05,0-.07,0-.05,0-.1,0-.15-.01-.16-.02-.31,0-.45.07-.23-.02-.42-.08-.59-.17ZM128.08,123.8c1.14.42,2.34.5,3.52.28,1.5-.28,2.96-1.03,4.2-2.14,3.62-3.22,5.7-8.61,6.47-13.76.74-5,.29-10.02-1.42-12.82-.88-1.44-1.92-2.46-3.09-3.08-.98-.52-2.01-.74-3.07-.69-.94.04-1.87.3-2.78.72-1.32.62-2.59,1.61-3.74,2.88-1.88,2.07-3.47,4.91-4.5,8.22-1.09,3.56-1.53,7.68-.92,12.02.38,2.71,1.22,4.76,2.38,6.21.84,1.04,1.83,1.76,2.92,2.16Z"></path><path class="cls-2" d="M165.02,102.83c-.09-.01-.2-.05-.33-.16-.27-.23-.54-.67-.78-1.25-1.21-2.91-1.35-6.51-.81-9.17.27-1.34.69-2.35,1.15-2.9.25-.3.46-.41.61-.44.12-.02.27,0,.48.11.05.03.17.13.32.38.66,1.1,1.17,3.69,1.24,6.44.08,2.66-.25,5.14-.97,6.34-.19.32-.38.49-.54.57-.18.09-.3.1-.38.09ZM164.78,107.88c.97.06,1.84-.19,2.6-.67,1.15-.73,1.99-1.99,2.56-3.44.95-2.41,1.28-5.58,1.05-8.64-.23-3.05-1.04-6.1-2.45-8.24-.8-1.2-1.81-2.17-3.07-2.63-1-.37-2.1-.42-3.28-.08-1.52.43-2.67,1.39-3.5,2.65-1.67,2.55-2.04,6.39-1.55,9.98.51,3.71,1.97,7.42,4.18,9.47.99.91,2.16,1.52,3.48,1.6Z"></path><path class="cls-2" d="M64.6,104.62c-1.02-4.65-1.53-7.21-1.46-12.34,1.97-.43,4.01-.79,5.24-.16.33.17.6.41.79.76.02.05.04.1.07.15.02.03.03.06.04.09.01.03.03.06.03.08.32.87.06,2.7-.04,3.28,0,0,0,0,0,0,0,0,0,.05-.02.1-.61,2.52-1.84,4.85-3.59,6.79l-1.08,1.25ZM61.76,120.44c.2.1.44.1.65.01,1.79-.78,4.19-1.77,6.01-2.43.2-.07.37-.23.45-.43.09-.2.08-.43,0-.62-1.09-2.49-2.06-5.04-2.9-7.62,4.45-3.77,7.33-7.82,8.62-11.55.8-2.29,1.01-4.49.59-6.44-.45-2.11-1.63-3.88-3.5-5.1-2.78-1.82-6.97-2.36-12.4-1.26-.34.07-.59.35-.63.68-.92,8.39.3,25.88,2.68,34.27.06.22.21.4.42.5Z"></path><path class="cls-2" d="M83.37,106.75c-.07.02-.13.03-.2.05-.79.19-1.71.41-2.5.58-.19.04-.4-.02-.53-.17-.19-.21-.39-.31-.6-.33-.3-.03-.69.07-1.14.4-.75.54-1.52,1.62-1.97,3.07.4,2.51.92,4.99,1.58,7.45.04.15.02.3-.06.43-.08.13-.21.22-.36.25-1.06.2-2.57.56-3.48.79-.15.04-.31,0-.44-.08-.13-.09-.21-.23-.23-.38-.19-1.42-.49-5.29-.36-15.06,0-.23.15-.44.37-.51.6-.2,1.21-.34,1.84-.42.16-.02.32.03.44.14.12.11.18.26.18.42-.01.38-.01.65,0,1.36,0,0,.34-.33.34-.33.83-.81,1.7-1.38,2.57-1.65.57-.17,1.15-.22,1.7-.11.57.11,1.1.37,1.58.77.7.59,1.26,1.48,1.68,2.64.05.15.04.31-.03.45-.07.14-.2.24-.35.27Z"></path><path class="cls-2" d="M156.14,109.71c.07.86-.22,1.67-.69,2.36-.78,1.12-2.11,1.98-3.55,2.4-1.33.39-2.82.41-4.14-.14-.99-.41-1.85-1.15-2.45-2.25-.08-.15-.09-.33-.03-.49.06-.16.19-.29.36-.34.12-.04.24-.08.36-.12.92-.32,1.83-.63,2.72-1,.25-.1.53-.03.7.19.27.36.44.54.64.65.12.07.28.13.53.16.29.03.57,0,.83-.09.26-.09.49-.24.66-.41.18-.19.28-.39.31-.57.02-.14,0-.28-.09-.43-.17-.3-.54-.47-1.42-.78-1.43-.51-3.5-1.25-5.16-4.23-.59-1.05-.91-2.09-1.02-3.08-.1-.92,0-1.79.24-2.59.51-1.66,1.66-2.97,3.07-3.72.75-.4,1.57-.64,2.42-.69.75-.04,1.52.07,2.25.37.71.28,1.38.73,1.98,1.35.73.75,1.34,1.76,1.8,3.03.09.24,0,.5-.19.66-.95.76-1.98,1.4-3.08,1.91-.15.07-.32.07-.47.01-.15-.06-.27-.18-.33-.34-.33-.88-.76-1.71-1.25-2.2-.27-.26-.51-.39-.73-.42-.18-.02-.39.01-.67.18-.26.16-.46.38-.6.66-.26.5-.34,1.19-.27,1.94.11,1.2.58,2.31.97,2.73.7.75,1.68,1.18,2.75,1.64,1.05.45,2.27.96,2.98,1.95.34.47.55,1.04.6,1.73Z"></path><path class="cls-2" d="M184.6,113.81c-.32,1.13-1.06,2.03-2,2.69-1.53,1.07-3.63,1.53-5.67,1.38-1.88-.14-3.8-.81-5.22-2.13-1.07-.99-1.82-2.34-2.07-4.04-.03-.23.04-.47.19-.65.16-.18.38-.28.62-.27.17,0,.34,0,.51.01,1.33.03,2.64.06,3.95,0,.37-.02.7.22.8.57.18.59.31.9.51,1.13.12.15.3.3.61.45.35.18.73.27,1.1.27.38,0,.74-.08,1.03-.22.33-.16.55-.37.66-.59.09-.17.13-.36.1-.59-.07-.47-.47-.85-1.44-1.67-1.59-1.33-3.88-3.25-4.59-7.84-.25-1.62-.18-3.1.16-4.42.31-1.22.84-2.3,1.53-3.2,1.43-1.88,3.52-3.02,5.68-3.31,1.14-.16,2.31-.08,3.41.26.98.3,1.9.81,2.7,1.53.77.69,1.42,1.58,1.89,2.66.57,1.31.89,2.88.87,4.72,0,.34-.23.65-.55.75-1.57.52-3.19.85-4.84.99-.22.02-.44-.06-.61-.21-.17-.15-.26-.36-.26-.59,0-1.28-.16-2.54-.56-3.4-.21-.46-.47-.74-.74-.88-.21-.11-.51-.17-.94-.09-.41.08-.77.27-1.08.56-.57.52-.99,1.36-1.26,2.35-.43,1.58-.35,3.23-.05,3.95.54,1.29,1.58,2.3,2.74,3.4,1.13,1.07,2.45,2.3,2.88,3.9.21.77.21,1.59-.05,2.49Z"></path><g><path class="cls-1" d="M118.92,69.48c-.95-.16-1.87-.58-2.51-1.07-.41-.31-.64-.6-.74-.81-.39-.85-.42-1.6-.21-2.28.62-2.09,3.34-3.87,6.17-5.66.28-.18.57-.36.85-.54-.1,3.51.09,5.26.21,6.37.12,1.08.15,1.35-.2,2.19-.31.76-.75,1.21-1.24,1.48-.64.36-1.45.44-2.32.3ZM114.93,75.81c4.2,1.23,9.95-1.67,13.53-3.44.9-.44,1.68-.83,2.31-1.1.45-.19.65-.71.47-1.16-2.97-7.13-2.69-10.91-2.42-14.38.25-3.22-.03-6.57-1.18-9.01-.62-1.31-1.52-2.42-2.79-3.05-1.12-.55-2.43-.69-3.91-.37-3.03.65-5.99,3.47-8.12,5.49-.21.2-.31.49-.26.78.04.29.23.53.49.66l3.72,1.81c.22.11.48.12.71.03s.41-.27.5-.5c.45-1.14,1.24-2.2,2.13-2.84.53-.38,1.07-.58,1.59-.6.39-.02.66.09.86.24.28.21.51.58.65,1.1.24.95.09,2.14-.38,2.94-1.19,2.05-3.09,3.11-5.26,4.29-1.86,1.01-3.94,2.13-5.45,4.13-.83,1.1-1.47,2.44-1.85,4.15-.68,3.06-.23,5,.94,7.76.04.08.09.16.14.24.9,1.5,2.15,2.4,3.59,2.83Z"></path><path class="cls-2" d="M175.57,60.51c.74-2.2,1.77-4.8,3.23-5.68.89-.32,1.42-.28,1.73-.14.25.11.47.33.64.73.37.88.36,2.4-.09,4.27l-5.52.82ZM172.99,76.46c1.32.86,2.86,1.09,4.39.81,1.41-.26,2.81-.95,4.08-1.96,1.62-1.3,3.05-3.16,4.01-5.45.12-.28.08-.6-.09-.86-.18-.25-.47-.39-.77-.38-1.14.06-2,.11-2.65.14-.05-.34-.29-.64-.64-.73-.47-.13-.96.15-1.09.62,0,0,0,0,0,0h0s0,0,0,0c0,0,0,0,0,0-.05.17-.06.21-.08.24-.04.09-.07.18-.11.33-.03.04-.05.09-.07.13-.45,1.04-1.06,1.92-1.81,2.49-.48.36-1.02.59-1.64.67-.49.02-.81-.11-1.05-.29-.38-.29-.68-.86-.85-1.76-.3-1.5-.16-3.46.03-5.15l.03-.26c3.71-.27,7.35-1.11,10.8-2.5.25-.1.44-.3.52-.56.71-2.25.89-5.87.85-7.95-.03-1.41-.53-2.98-1.48-4.22-.71-.93-1.69-1.7-2.93-2.06-1.88-.55-3.63-.38-5.19.35-2.47,1.16-4.36,3.67-5.66,6.65-2.11,4.87-2.81,11.37-1.66,16.75.55,2.32,1.63,3.98,3.09,4.94Z"></path><path class="cls-2" d="M159.9,62.36c-.09-.04-.18-.12-.28-.28-.2-.33-.33-.87-.38-1.54-.24-3.38.84-7.12,2.3-9.65.73-1.28,1.5-2.16,2.16-2.57.36-.22.61-.26.78-.24.13.02.28.08.46.28.05.05.13.19.2.5.3,1.36-.07,4.17-.92,7-.83,2.74-2.01,5.17-3.16,6.15-.31.26-.56.37-.74.4-.21.03-.34,0-.42-.04ZM157.93,67.44c.97.39,1.95.44,2.88.2,1.43-.36,2.71-1.35,3.79-2.65,1.79-2.14,3.21-5.27,4.01-8.47.8-3.2,1.02-6.59.3-9.27-.4-1.5-1.12-2.83-2.25-3.74-.89-.72-2.01-1.14-3.33-1.2-1.7-.08-3.21.51-4.48,1.52-2.58,2.04-4.27,5.83-4.99,9.68-.75,3.97-.52,8.26,1.05,11.11.7,1.27,1.69,2.29,3.01,2.82Z"></path><path class="cls-2" d="M67.17,67.93c-.1-.05-.21-.14-.32-.32-.23-.37-.37-.99-.43-1.75-.28-3.84.96-8.08,2.61-10.96.83-1.45,1.71-2.46,2.46-2.92.4-.25.69-.3.88-.27.14.02.32.09.52.32.05.06.15.22.23.57.34,1.54-.07,4.73-1.05,7.95-.94,3.11-2.28,5.87-3.58,6.99-.35.3-.63.42-.84.45-.24.03-.38,0-.47-.05ZM64.94,73.7c1.1.44,2.21.49,3.27.23,1.62-.41,3.07-1.54,4.31-3,2.04-2.43,3.65-5.98,4.56-9.62.91-3.63,1.16-7.49.34-10.52-.46-1.71-1.27-3.22-2.55-4.25-1.02-.82-2.28-1.3-3.78-1.37-1.93-.09-3.64.58-5.09,1.72-2.93,2.32-4.84,6.62-5.67,10.99-.85,4.51-.59,9.38,1.19,12.61.79,1.44,1.92,2.6,3.42,3.2Z"></path><path class="cls-2" d="M214.78,68.2c-.03,3.36-1.08,6.26-2.77,8.65-2.31,3.27-5.79,5.55-9.45,6.89-4,1.46-8.37,1.85-11.98,1.06-2.1-.46-4.03-1.34-5.44-2.74-.39-.38-.53-.95-.36-1.47.85-2.66,1.51-4.64,2.02-6.12.16-.46.54-.82,1.02-.94s.98.01,1.34.35c1.25,1.16,2.59,1.97,3.96,2.46,1.34.48,2.7.67,4.01.59,1.35-.08,2.65-.44,3.81-1.04,1.11-.58,2.09-1.37,2.87-2.36,1.35-1.71,1.76-3.19,1.66-4.55-.26-3.46-3.77-6.87-8.28-11.09-4.62-4.32-10.21-9.43-10.69-15.74-.25-3.22.83-6.58,3.61-10.12,1.56-1.99,3.61-3.35,5.87-4.25,5.02-2.01,11.25-1.83,16.26-1.11.39.06.74.27.97.59s.32.72.25,1.11c-.25,1.34-.54,3.07-.85,4.87-.37,2.19-.76,4.48-1.1,6.25-.07.39-.3.73-.64.95-.33.21-.74.28-1.12.19-2.44-.58-6.19-1.39-8.59-.89-.44.09-.77.22-1.02.36-.57,1-.72,1.9-.63,2.74.27,2.48,2.62,4.99,5.91,8.36,4.14,4.25,9.45,9.59,9.37,16.99Z"></path><path class="cls-2" d="M159.84,38.18s-.1,0-.14,0c-.47.07-1.3.39-1.33.83l-.06.82c0,.18.11.34.28.4,1.91.75,3.98,0,5.73.13,2.14.16,3.9,1.08,5.64.54.13-.04.25-.14.31-.26.06-.13.07-.27.03-.4l-.51-1.52c-.14-.42-.58-.65-1.01-.54-1.75.47-4.26.23-4.52.2-.02,0-.03,0-.05,0l-4.37-.2Z"></path><path class="cls-2" d="M154.52,82.53l-1.41-1.99c-.29-.87-1.21-1.36-2.09-1.11-3.67,1.03-3.97,2.17-11.45-.62-.11-.04-.22-.07-.33-.11-.51-.17-1.03.21-1.03.74v3c0,.32.19-.04.49.08,7.64,3.01,9.5,2.99,15.21,1.21.24-.08.44-.24.56-.47.12-.23.14-.49.05-.73Z"></path><path class="cls-2" d="M150.63,42.18c-2.07-1.7-4.56-2.59-7.07-2.56-2.42.03-4.84.9-6.88,2.65-1.69,1.46-3.11,3.51-4.06,6.15-1.38,3.82-1.78,8.88-.7,15.24,1,5.84,3.04,9.85,5.64,12.26,1.77,1.64,3.79,2.52,5.84,2.7,2.25.21,4.49-.42,6.45-1.68,2.44-1.57,4.46-4.12,5.58-7.32.14-.4-.01-.85-.37-1.07-1.66-1.05-3.38-2.01-5.15-2.87-.24-.12-.53-.12-.77-.01-.25.11-.43.33-.5.59-.6,2.15-1.41,4.33-2.89,5.38-1.45.7-2.14.82-2.25.84,0,0,0,0,0,0,0,0,.04,0,.04,0,0,0,0,0,.01,0h-.05s-.43.15-.43.15c.12-.08.25-.13.4-.15-.82.09-1.56-.12-2.23-.56-1.55-.99-2.76-3.14-3.5-5.33-1.84-5.45-1.3-11.6.52-15.53.92-1.97,2.08-3.23,3.27-3.68.51-.19,1.05-.25,1.61-.14.72.14,1.54.56,2.44,1.41.34.32.87.33,1.22.02,1.73-1.5,3.12-3.34,4.09-5.4.18-.38.08-.83-.25-1.09Z"></path><path class="cls-2" d="M66.46,33.13c-2.43-3.59-5.9-6.09-9.8-7.2-3.77-1.07-7.92-.82-11.88.98-3.29,1.49-6.42,4.02-9.1,7.69-3.88,5.3-6.82,12.96-8.04,23.31-1.12,9.52.22,16.67,3.16,21.59,2,3.36,4.73,5.63,7.83,6.86,3.4,1.35,7.16,1.4,10.77.34,4.5-1.31,8.79-4.35,12-8.8.4-.56.37-1.32-.09-1.84-2.1-2.39-4.33-4.66-6.68-6.8-.32-.29-.76-.43-1.19-.37-.43.06-.82.31-1.05.68-1.92,3.06-4.16,6.08-6.94,7.02-2.57.42-3.7.3-3.88.27,0,0,0,0,0,0,0,0,.07.02.06.01,0,0,0,0,.02,0l-.08-.02-.74.03c.22-.06.45-.09.68-.04-1.31-.24-2.36-.9-3.21-1.89-1.95-2.25-2.84-6.13-2.99-9.87-.37-9.3,3.28-18.59,7.9-23.85,2.32-2.64,4.7-4.06,6.75-4.22.88-.07,1.74.09,2.56.53,1.05.55,2.13,1.58,3.15,3.31.38.65,1.2.91,1.88.6,3.36-1.53,6.36-3.75,8.82-6.51.45-.5.5-1.25.12-1.81Z"></path><path class="cls-2" d="M89.42,31v20.19c10.51-.36,13.86-7.81,11-14.65-1.87-4.48-7.03-5.48-11-5.54h0ZM113.09,79.42c1.71-.13,3.3.88,3.92,2.47.26.67.22,1.42-.12,2.05-.33.64-.92,1.1-1.62,1.26-4.1.98-11.8,1.96-15.61-3.2-7.04-9.52,4.13-21.6-9.41-23.69l-.82.1v10.82c0,3.66-2.97,6.64-6.64,6.64h-.11c-1.84,0-3.34-1.5-3.34-3.34V26.61c0-1.77,1.44-3.21,3.21-3.21,0,0,11.61-1.42,21.38,1.86,9.77,3.29,9.01,16.32,6.26,24.37-1.19,3.5-6.04,5.68-11.15,7.03,3.6.47,7.94,1.67,7.94,4.74,0,5.26-2.75,14.13.61,16.65,1.61,1.1,3.56,1.58,5.5,1.35h0Z"></path></g></g><g><path class="cls-2" d="M.7,65.43c-.3-1.78.3-3.79,4.22-4.6l.37,2.24c-1.77.43-2.49,1.28-2.35,1.99.16.77,1.36,1.37,3.43,1.04,2.06-.36,3.01-1.31,2.91-2.1-.09-.71-1.05-1.28-2.87-1.12l-.37-2.24c3.97-.5,5.19,1.2,5.48,2.98.31,1.87-.37,3.97-4.77,4.71-4.41.74-5.73-1.04-6.04-2.9Z"></path><path class="cls-2" d="M.12,53.66l8.4.43.19-3.79,2.26.12-.31,6.05-10.66-.54.12-2.26Z"></path><path class="cls-2" d="M2.28,40.4l.59-2.19,7.34,1.98c1.98.53,2.67,2.43,2.24,4.02-.43,1.59-1.99,2.88-3.96,2.35l-7.34-1.98.59-2.19,6.47,1.74c.7.19,1.79.48,2.06-.52.27-1-.82-1.29-1.52-1.48l-6.47-1.74Z"></path><path class="cls-2" d="M5.04,32.68l1.7-3.23c.75-1.44,2.46-1.84,3.9-1.09,1.16.61,1.7,1.9,1.09,3.06.61-1.16,1.74-1.78,3.22-1,1.44.75,2,2.55,1.24,3.99l-1.7,3.23-9.45-4.96ZM8.53,30.9l-.44.83,2.01,1.06.44-.83c.71-1.35-1.3-2.4-2.01-1.05ZM11.96,32.7l-.44.83,2.01,1.06.44-.83c.7-1.35-1.31-2.4-2.01-1.06Z"></path><path class="cls-2" d="M19.62,28.97l-8.44-6.53,1.39-1.79,8.44,6.53-1.39,1.79Z"></path><path class="cls-2" d="M25.09,22.76l-1.69,1.51-7.1-7.97,2.6-2.31,6.71,5.28-5.59-6.28,1.69-1.51,7.1,7.97-2.6,2.32-6.71-5.28,5.59,6.28Z"></path><path class="cls-2" d="M28.77,6.89l2.13,4,2.4-1.28-2.13-4,2-1.06,5.02,9.42-2,1.06-2.13-4-2.4,1.28,2.13,4-2,1.07-5.02-9.42,2-1.07Z"></path><path class="cls-2" d="M42.36,1.28c1.83-.47,3.99.02,5.1,4.35,1.11,4.33-.54,5.8-2.37,6.27-1.83.47-3.99-.02-5.1-4.35-1.11-4.33.54-5.8,2.37-6.27ZM42.92,3.48c-.75.22-1.25,1.47-.74,3.51.54,2.03,1.57,2.88,2.34,2.71.76-.22,1.25-1.47.74-3.51-.54-2.03-1.57-2.88-2.34-2.71Z"></path></g><polygon class="cls-2" points="2.55 73.85 4.44 73.8 4.98 72 5.6 73.78 7.48 73.74 5.98 74.88 6.61 76.66 5.06 75.58 3.56 76.72 4.1 74.92 2.55 73.85"></polygon><polygon class="cls-2" points="49.55 1.85 51.44 1.8 51.98 0 52.6 1.78 54.48 1.74 52.98 2.88 53.61 4.66 52.06 3.58 50.56 4.72 51.1 2.92 49.55 1.85"></polygon></g></g></svg>