<svg xmlns="http://www.w3.org/2000/svg" width="140" height="98.291" viewBox="0 0 140 98.291"><g id="Group_788" data-name="Group 788" transform="translate(-210 -69)"><g id="logo-shipsmart-white" transform="translate(210 69)"><path id="Path_9" data-name="Path 9" d="M40.7,301.221a5.258,5.258,0,0,0,1.022,2.939,5.859,5.859,0,0,0,4.651,1.865c3.066,0,4.881-1.354,4.881-3.552a2.957,2.957,0,0,0-1.661-2.76c-.843-.383-1.814-.664-5.954-1.61-3.654-.792-4.932-1.278-6.388-2.3a8.894,8.894,0,0,1-3.859-7.589c0-6.082,4.932-9.915,12.751-9.915,5.034,0,8.892,1.533,11.039,4.5a11.247,11.247,0,0,1,1.993,4.753l-8.433.92c-.486-2.581-1.916-3.629-4.932-3.629-2.428,0-4.216,1.3-4.216,3.117a2.709,2.709,0,0,0,1.865,2.53,46.213,46.213,0,0,0,5.468,1.3,19.453,19.453,0,0,1,6.439,2.249,8.826,8.826,0,0,1,4.293,8.075A9.862,9.862,0,0,1,56.88,309.4c-2.3,2.2-5.8,3.373-10.451,3.373a18.969,18.969,0,0,1-8.867-1.942,9.357,9.357,0,0,1-4.293-5.059,15.566,15.566,0,0,1-.869-3.68l8.3-.869Z" transform="translate(-32.4 -214.48)" fill="#fff"></path><path id="Path_10" data-name="Path 10" d="M156.089,314.161a31.508,31.508,0,0,0-1.712-5.852l-3.654-10.528c-.051-.2-1.227-3.859-1.354-4.191-.281-.945-.511-1.61-.639-1.968.23,2.5.383,5.724.383,7.819v8.611a43.676,43.676,0,0,0,.307,6.133H141.6a45.093,45.093,0,0,0,.307-6.133v-20.6a59.138,59.138,0,0,0-.307-6.158h10.477a28.541,28.541,0,0,0,1.508,5.571l5.954,17.044,5.928-17.044a26.1,26.1,0,0,0,1.457-5.571h10.528a47.218,47.218,0,0,0-.307,6.158v20.6a40.756,40.756,0,0,0,.307,6.133h-7.819a44.378,44.378,0,0,0,.307-6.133v-8.611c0-.945.128-3.91.2-5.136q.115-2.108.153-2.683c-.869,3.092-1.278,4.5-1.789,5.928L164.7,308.361a36.606,36.606,0,0,0-1.712,5.8Z" transform="translate(-114.385 -216.714)" fill="#fff"></path><path id="Path_11" data-name="Path 11" d="M411.634,313.863a37.086,37.086,0,0,0-1.942-6.158c-1.278-3.424-1.763-4.344-2.734-5.213a4.39,4.39,0,0,0-3.092-1.073h-4.037v6.491a43.14,43.14,0,0,0,.307,5.979H391.6a40.073,40.073,0,0,0,.307-5.928V286.7a43.2,43.2,0,0,0-.307-5.8c1.763.077,3.22.128,5.928.128h10.323c6.439,0,10.17,3.322,10.17,9.02a8.6,8.6,0,0,1-2.351,6.49,8.417,8.417,0,0,1-3.782,1.968c2.019.639,2.939,1.533,4.216,4.344.588,1.278,1.15,2.606,2.939,6.874.434,1.1.92,2.1,1.891,4.191l-9.3-.051Zm-5.647-19.19a3.464,3.464,0,0,0,3.782-3.68c0-2.249-1.278-3.373-3.731-3.373H399.8v7.027h6.184Z" transform="translate(-301.95 -216.416)" fill="#fff"></path><path id="Path_12" data-name="Path 12" d="M41.7,44.247a5.258,5.258,0,0,0,1.022,2.939,5.859,5.859,0,0,0,4.651,1.865c3.066,0,4.881-1.354,4.881-3.552a2.957,2.957,0,0,0-1.661-2.76c-.843-.383-1.814-.664-5.954-1.61-3.654-.792-4.932-1.278-6.388-2.3A8.972,8.972,0,0,1,34.4,31.215c0-6.082,4.932-9.915,12.751-9.915,5.034,0,8.892,1.533,11.039,4.5A11.247,11.247,0,0,1,60.18,30.55l-8.433.92c-.486-2.581-1.891-3.629-4.932-3.629-2.428,0-4.216,1.3-4.216,3.117a2.709,2.709,0,0,0,1.865,2.53,46.214,46.214,0,0,0,5.468,1.3,19.453,19.453,0,0,1,6.439,2.249,8.826,8.826,0,0,1,4.293,8.075A9.862,9.862,0,0,1,57.88,52.4c-2.3,2.2-5.8,3.373-10.451,3.373a18.969,18.969,0,0,1-8.867-1.942,9.357,9.357,0,0,1-4.293-5.059,15.565,15.565,0,0,1-.869-3.68l8.3-.843Z" transform="translate(-33.144 -21.3)" fill="#fff"></path><path id="Path_13" data-name="Path 13" d="M172.62,24.326a38.709,38.709,0,0,0-.307,5.852V51.361a43.271,43.271,0,0,0,.307,5.852h-8.535a39.362,39.362,0,0,0,.307-5.852V43.695H151.028v7.666a41.847,41.847,0,0,0,.307,5.852H142.8a38.71,38.71,0,0,0,.307-5.852V30.152A39.581,39.581,0,0,0,142.8,24.3h8.535a43.761,43.761,0,0,0-.307,5.852v6.567h13.39V30.152a38.283,38.283,0,0,0-.307-5.852h8.509Z" transform="translate(-115.249 -23.533)" fill="#fff"></path><path id="Path_14" data-name="Path 14" d="M277.339,76.026a34.676,34.676,0,0,0-.307,5.852V89.85a39.357,39.357,0,0,0,.307,5.852H268.6a38.93,38.93,0,0,0,.307-5.852v-8A38.072,38.072,0,0,0,268.6,76h8.739Z" transform="translate(-209.432 -62.022)" fill="#fff"></path><path id="Path_15" data-name="Path 15" d="M311.6,56.889a43.761,43.761,0,0,0,.307-5.852V29.675A45.575,45.575,0,0,0,311.6,23.9c1.865.077,3.3.128,5.852.128h8.688c7.87,0,12.189,3.756,12.189,10.63s-4.523,11.218-12.24,11.218H319.8v5.06a56.6,56.6,0,0,0,.307,5.979l-8.509-.026Zm14.156-17.734c2.785,0,4.421-1.533,4.421-4.267s-1.559-4.165-4.421-4.165h-5.928V39.13l5.928.026Z" transform="translate(-241.879 -23.236)" fill="#fff"></path><path id="Path_16" data-name="Path 16" d="M302.32,309.357l-8.611-23.79a32.236,32.236,0,0,1-1.354-4.267H281.98a24.679,24.679,0,0,1-1.278,4.267l-8.586,23.79a36.1,36.1,0,0,1-1.916,4.83h9.3a23.769,23.769,0,0,1,1-4.267l6.669-21.848,5.724,18.5,1.073,3.373a33.138,33.138,0,0,1,.945,4.267h9.3c-.511-1.15-1.124-2.76-1.891-4.855Z" transform="translate(-210.91 -216.714)" fill="#fff"></path><path id="Path_17" data-name="Path 17" d="M269.743,34.734a5.417,5.417,0,1,0-5.443-5.417A5.426,5.426,0,0,0,269.743,34.734Z" transform="translate(-206.229 -23.236)" fill="#fff"></path><path id="Path_18" data-name="Path 18" d="M381.05,177.917a5.447,5.447,0,1,0-6.235,4.5A5.427,5.427,0,0,0,381.05,177.917Z" transform="translate(-285.625 -134.021)" fill="#fff"></path><path id="Path_19" data-name="Path 19" d="M42.343,232.635a5.417,5.417,0,1,0-5.443-5.417A5.426,5.426,0,0,0,42.343,232.635Z" transform="translate(-35.75 -171.628)" fill="#fff"></path><path id="Path_20" data-name="Path 20" d="M327.023,375.436a5.162,5.162,0,1,1-5.162-5.136A5.158,5.158,0,0,1,327.023,375.436Z" transform="translate(-245.501 -282.971)" fill="#fff"></path><path id="Path_21" data-name="Path 21" d="M119.028,184.588a38.022,38.022,0,0,0-5.877-.307H42.777a39.747,39.747,0,0,0-5.877.307V175.9a39.527,39.527,0,0,0,5.877.307h70.4a38.447,38.447,0,0,0,5.877-.307l-.026,8.688Z" transform="translate(-35.75 -137.195)" fill="#fff"></path><path id="Path_22" data-name="Path 22" d="M217.217,234.688a36.472,36.472,0,0,0-5.755-.307H98.355a38.124,38.124,0,0,0-5.755.307V226a37.915,37.915,0,0,0,5.755.307H211.437a36.879,36.879,0,0,0,5.755-.307l.025,8.688Z" transform="translate(-77.217 -174.752)" fill="#fff"></path><path id="Path_23" data-name="Path 23" d="M514.328,307.888a46.581,46.581,0,0,0,.307,5.979H505.87a45.308,45.308,0,0,0,.307-5.979V287.957h-2.172a56.177,56.177,0,0,0-6.005.281V280.7a55.8,55.8,0,0,0,5.928.281h11.524a50.8,50.8,0,0,0,6.184-.281v7.538a49.973,49.973,0,0,0-6.184-.281H514.3v19.931Z" transform="translate(-381.662 -216.267)" fill="#fff"></path></g></g></svg>