<svg display="block" role="presentation" viewBox="0 0 188 48" xmlns="http://www.w3.org/2000/svg"><g d="M 28.309 24.987 C 28.117 24.804 27.938 24.616 27.768 24.425 C 26.177 22.638 25.449 20.48 25.122 17.94 C 25.04 17.31 24.52 16.823 23.894 16.819 L 20.4 16.819 C 20.501 18.238 20.696 19.704 21.069 21.155 L 11.409 21.155 C 10.388 21.155 8.935 20.729 7.735 19.926 C 7.331 19.656 6.954 19.342 6.631 18.987 C 6.015 18.309 5.506 17.446 5.158 16.494 C 4.77 15.434 4.573 14.27 4.573 13.031 C 4.573 12.534 4.602 12.063 4.659 11.618 C 4.752 10.886 4.924 10.22 5.178 9.605 L 5.223 9.494 C 5.595 8.516 6.125 7.671 6.834 6.916 C 6.855 6.895 6.876 6.874 6.898 6.853 C 7.564 6.201 8.377 5.673 9.376 5.236 C 10.289 4.839 11.38 4.64 12.627 4.64 C 13.874 4.64 14.891 4.831 15.872 5.228 C 16.836 5.631 17.611 6.136 18.238 6.772 C 18.256 6.79 18.273 6.808 18.289 6.826 L 23.737 6.826 C 23.158 5.566 22.412 4.446 21.47 3.489 C 20.379 2.386 19.073 1.546 17.591 0.929 C 16.068 0.309 14.414 0 12.627 0 C 10.84 0 9.098 0.309 7.575 0.971 C 6.052 1.634 4.699 2.516 3.569 3.665 C 2.435 4.859 1.565 6.225 0.958 7.816 C 0.305 9.405 0 11.127 0 13.028 C 0 14.928 0.305 16.559 0.872 18.103 C 1.437 19.648 2.266 21.019 3.265 22.123 C 4.579 23.572 6.274 24.568 7.939 25.149 C 9.167 25.58 10.379 25.788 11.41 25.788 L 27.988 25.788 C 28.405 25.788 28.612 25.272 28.31 24.981 Z M 34.448 17.189 C 33.883 15.644 33.054 14.273 32.053 13.169 C 29.773 10.653 26.34 9.503 23.908 9.503 L 7.33 9.503 C 6.91 9.503 6.708 10.023 7.013 10.314 C 7.201 10.496 7.38 10.68 7.547 10.87 C 9.138 12.657 9.868 14.818 10.195 17.36 C 10.276 17.988 10.798 18.472 11.424 18.477 L 14.916 18.477 C 14.816 17.059 14.621 15.592 14.247 14.142 L 23.908 14.142 C 23.949 14.142 23.994 14.142 24.037 14.143 C 24.082 14.143 24.127 14.148 24.171 14.15 C 24.444 14.168 24.74 14.211 25.049 14.281 C 25.284 14.335 25.517 14.401 25.746 14.477 C 25.813 14.498 25.88 14.522 25.947 14.548 C 25.977 14.558 26.006 14.569 26.036 14.58 C 26.549 14.773 27.063 15.029 27.542 15.343 C 27.962 15.62 28.353 15.942 28.685 16.308 C 29.302 16.988 29.811 17.851 30.159 18.801 C 30.547 19.861 30.745 21.025 30.745 22.264 C 30.745 22.763 30.716 23.232 30.659 23.679 C 30.565 24.407 30.392 25.074 30.14 25.688 L 30.095 25.8 C 29.722 26.778 29.193 27.623 28.484 28.377 C 28.463 28.398 28.443 28.419 28.42 28.439 C 27.753 29.093 26.942 29.621 25.942 30.056 C 25.029 30.453 23.937 30.652 22.691 30.652 C 21.446 30.652 20.427 30.461 19.445 30.064 C 18.48 29.661 17.708 29.156 17.078 28.52 C 17.061 28.502 17.043 28.484 17.027 28.466 L 11.579 28.466 C 12.16 29.726 12.905 30.846 13.847 31.803 C 14.939 32.907 16.243 33.746 17.725 34.362 C 19.248 34.981 20.903 35.29 22.689 35.29 C 24.476 35.29 26.217 34.981 27.742 34.319 C 29.265 33.657 30.617 32.773 31.748 31.623 C 32.882 30.43 33.752 29.064 34.36 27.472 C 35.013 25.884 35.318 24.161 35.318 22.261 C 35.318 20.36 35.013 18.728 34.448 17.184 Z M 115.319 20.533 C 115.319 18.684 115.008 16.968 114.429 15.39 C 113.805 13.855 112.962 12.502 111.849 11.373 C 110.735 10.245 109.4 9.387 107.886 8.757 C 106.329 8.124 104.638 7.808 102.813 7.808 C 100.988 7.808 99.208 8.124 97.651 8.801 C 96.094 9.477 94.713 10.379 93.557 11.555 C 92.397 12.774 91.508 14.171 90.887 15.796 C 90.219 17.418 89.908 19.18 89.908 21.121 C 89.908 23.062 90.219 24.73 90.798 26.308 C 91.376 27.887 92.222 29.287 93.245 30.415 C 95.577 32.988 99.085 34.162 101.569 34.162 L 118.511 34.162 C 118.936 34.162 119.149 33.634 118.84 33.338 C 115.635 30.265 115.32 26.012 115.32 20.532 Z M 101.566 29.425 C 100.174 29.425 97.989 28.649 96.683 27.21 C 96.054 26.515 95.533 25.635 95.177 24.662 C 94.781 23.579 94.579 22.389 94.579 21.123 C 94.579 19.78 94.781 18.636 95.197 17.622 L 95.243 17.507 C 95.625 16.509 96.164 15.644 96.889 14.873 C 97.582 14.176 98.432 13.617 99.487 13.157 C 100.42 12.753 101.536 12.549 102.81 12.549 C 104.084 12.549 105.124 12.744 106.126 13.149 C 107.112 13.562 107.904 14.078 108.544 14.728 C 109.165 15.357 109.665 16.139 110.072 17.117 C 110.45 18.178 110.64 19.326 110.64 20.533 C 110.64 23.19 110.64 26.336 111.436 29.425 L 101.563 29.425 Z M 126.386 33.305 C 124.917 32.719 123.627 31.952 122.559 30.914 C 121.49 29.876 120.644 28.657 120.066 27.258 C 119.443 25.86 119.132 24.325 119.132 22.656 L 119.132 2.592 L 123.806 2.592 L 123.806 8.258 L 132.708 8.258 L 132.708 12.23 L 123.806 12.23 L 123.806 22.159 C 123.806 23.287 123.983 24.28 124.384 25.227 C 124.74 26.174 125.273 27.032 125.942 27.709 C 126.61 28.385 127.366 28.928 128.301 29.332 C 129.19 29.739 130.17 29.918 131.239 29.918 L 133.196 29.918 L 133.196 34.16 L 131.239 34.16 C 129.503 34.16 127.857 33.89 126.388 33.302 Z M 148.817 12.048 C 147.794 12.048 146.815 12.228 145.924 12.589 C 145.035 12.995 144.278 13.491 143.653 14.169 C 142.986 14.846 142.496 15.659 142.14 16.606 C 141.739 17.553 141.562 18.547 141.562 19.63 L 141.562 34.163 L 136.888 34.163 L 136.888 19.134 C 136.888 17.465 137.199 15.976 137.777 14.577 C 138.355 13.178 139.202 12.005 140.27 10.967 C 141.293 9.974 142.583 9.207 144.052 8.621 C 145.522 8.08 147.078 7.808 148.816 7.808 L 151.62 7.808 L 151.62 12.05 L 148.816 12.05 Z M 155.848 1.693 C 156.338 1.196 156.916 0.971 157.673 0.971 C 158.34 0.971 158.918 1.196 159.409 1.693 C 159.899 2.19 160.121 2.822 160.121 3.499 C 160.121 4.221 159.899 4.807 159.409 5.304 C 158.918 5.801 158.34 6.071 157.673 6.071 C 156.916 6.071 156.338 5.801 155.848 5.304 C 155.358 4.807 155.091 4.221 155.091 3.499 C 155.091 2.822 155.358 2.19 155.848 1.693 Z M 159.899 34.163 L 155.314 34.163 L 155.314 8.258 L 159.899 8.258 Z M 164.652 8.258 L 169.859 8.258 L 176.134 17.418 L 182.009 8.258 L 186.949 8.258 L 179.026 20.352 L 188 34.163 L 182.836 34.163 L 175.822 23.331 L 168.529 34.163 L 163.59 34.163 L 172.84 20.352 L 164.651 8.258 Z M 86.173 2.592 L 91.315 2.592 L 81.789 31.486 C 81.229 33.183 79.662 34.327 77.897 34.327 C 76.114 34.327 74.535 33.16 73.992 31.437 L 67.394 10.572 L 61.005 31.267 C 60.443 33.087 58.781 34.327 56.9 34.327 C 55.049 34.327 53.406 33.127 52.82 31.348 L 43.34 2.594 L 48.482 2.594 L 56.977 28.932 L 64.232 4.92 C 64.65 3.537 65.91 2.593 67.336 2.594 C 68.754 2.594 70.009 3.528 70.434 4.899 L 77.814 28.751 L 86.175 2.594 Z" fill="transparent" height="35.29010245338496px" id="uLaZuVeGc" transform="translate(0 6.355)" width="187.99999282504382px"><path d="M 28.309 24.987 C 28.117 24.804 27.938 24.616 27.768 24.425 C 26.177 22.638 25.449 20.48 25.122 17.94 C 25.04 17.31 24.52 16.823 23.894 16.819 L 20.4 16.819 C 20.501 18.238 20.696 19.704 21.069 21.155 L 11.409 21.155 C 10.388 21.155 8.935 20.729 7.735 19.926 C 7.331 19.656 6.954 19.342 6.631 18.987 C 6.015 18.309 5.506 17.446 5.158 16.494 C 4.77 15.434 4.573 14.27 4.573 13.031 C 4.573 12.534 4.602 12.063 4.659 11.618 C 4.752 10.886 4.924 10.22 5.178 9.605 L 5.223 9.494 C 5.595 8.516 6.125 7.671 6.834 6.916 C 6.855 6.895 6.876 6.874 6.898 6.853 C 7.564 6.201 8.377 5.673 9.376 5.236 C 10.289 4.839 11.38 4.64 12.627 4.64 C 13.874 4.64 14.891 4.831 15.872 5.228 C 16.836 5.631 17.611 6.136 18.238 6.772 C 18.256 6.79 18.273 6.808 18.289 6.826 L 23.737 6.826 C 23.158 5.566 22.412 4.446 21.47 3.489 C 20.379 2.386 19.073 1.546 17.591 0.929 C 16.068 0.309 14.414 0 12.627 0 C 10.84 0 9.098 0.309 7.575 0.971 C 6.052 1.634 4.699 2.516 3.569 3.665 C 2.435 4.859 1.565 6.225 0.958 7.816 C 0.305 9.405 0 11.127 0 13.028 C 0 14.928 0.305 16.559 0.872 18.103 C 1.437 19.648 2.266 21.019 3.265 22.123 C 4.579 23.572 6.274 24.568 7.939 25.149 C 9.167 25.58 10.379 25.788 11.41 25.788 L 27.988 25.788 C 28.405 25.788 28.612 25.272 28.31 24.981 Z" fill="rgb(74, 203, 255)" height="25.788422892911438px" id="np6p8cEQW" width="28.453630236908474px"/><path d="M 27.582 16.217 C 27.017 14.673 26.188 13.301 25.187 12.197 C 22.907 9.681 19.474 8.532 17.042 8.532 L 0.464 8.532 C 0.044 8.532 -0.158 9.052 0.146 9.343 C 0.335 9.524 0.514 9.709 0.681 9.898 C 2.272 11.686 3.001 13.847 3.329 16.389 C 3.41 17.017 3.932 17.501 4.558 17.506 L 8.05 17.506 C 7.95 16.088 7.755 14.621 7.381 13.17 L 17.042 13.17 C 17.083 13.17 17.128 13.17 17.171 13.172 C 17.216 13.172 17.261 13.177 17.305 13.178 C 17.578 13.196 17.874 13.24 18.183 13.309 C 18.418 13.364 18.651 13.429 18.88 13.505 C 18.947 13.526 19.014 13.551 19.081 13.577 C 19.111 13.586 19.14 13.598 19.17 13.609 C 19.683 13.802 20.197 14.057 20.676 14.372 C 21.096 14.648 21.487 14.971 21.819 15.336 C 22.436 16.016 22.945 16.879 23.293 17.83 C 23.681 18.89 23.879 20.054 23.879 21.293 C 23.879 21.791 23.85 22.261 23.793 22.708 C 23.699 23.436 23.526 24.103 23.274 24.717 L 23.229 24.828 C 22.856 25.806 22.327 26.651 21.618 27.406 C 21.597 27.427 21.577 27.448 21.554 27.467 C 20.887 28.121 20.076 28.649 19.076 29.085 C 18.163 29.481 17.071 29.68 15.825 29.68 C 14.58 29.68 13.561 29.489 12.579 29.093 C 11.614 28.69 10.842 28.184 10.212 27.548 C 10.195 27.53 10.177 27.513 10.161 27.495 L 4.713 27.495 C 5.294 28.754 6.039 29.875 6.981 30.831 C 8.073 31.936 9.377 32.774 10.859 33.391 C 12.382 34.01 14.037 34.319 15.823 34.319 C 17.61 34.319 19.351 34.01 20.876 33.347 C 22.399 32.685 23.751 31.801 24.882 30.652 C 26.016 29.459 26.886 28.092 27.494 26.501 C 28.147 24.913 28.452 23.19 28.452 21.289 C 28.452 19.389 28.147 17.757 27.582 16.212 Z M 108.453 19.562 C 108.453 17.713 108.141 15.997 107.563 14.418 C 106.939 12.884 106.096 11.53 104.983 10.402 C 103.869 9.273 102.534 8.415 101.02 7.786 C 99.463 7.153 97.772 6.837 95.947 6.837 C 94.122 6.837 92.342 7.153 90.785 7.829 C 89.228 8.506 87.847 9.408 86.691 10.583 C 85.531 11.802 84.642 13.199 84.021 14.825 C 83.353 16.447 83.042 18.208 83.042 20.15 C 83.042 22.091 83.353 23.758 83.931 25.337 C 84.509 26.915 85.356 28.316 86.379 29.444 C 88.711 32.017 92.219 33.19 94.703 33.19 L 111.645 33.19 C 112.069 33.19 112.283 32.663 111.974 32.366 C 108.769 29.293 108.454 25.04 108.454 19.56 Z M 94.7 28.453 C 93.308 28.453 91.123 27.678 89.817 26.238 C 89.188 25.544 88.667 24.663 88.311 23.69 C 87.915 22.607 87.713 21.417 87.713 20.151 C 87.713 18.809 87.915 17.664 88.331 16.651 L 88.377 16.536 C 88.758 15.537 89.298 14.673 90.023 13.902 C 90.716 13.204 91.566 12.646 92.621 12.186 C 93.554 11.781 94.67 11.577 95.944 11.577 C 97.218 11.577 98.258 11.773 99.26 12.178 C 100.246 12.591 101.038 13.107 101.678 13.756 C 102.299 14.386 102.799 15.168 103.206 16.146 C 103.584 17.206 103.774 18.354 103.774 19.562 C 103.774 22.219 103.774 25.364 104.57 28.453 L 94.697 28.453 Z M 119.52 32.334 C 118.051 31.748 116.761 30.98 115.693 29.943 C 114.624 28.905 113.778 27.686 113.2 26.287 C 112.577 24.888 112.266 23.354 112.266 21.684 L 112.266 1.621 L 116.94 1.621 L 116.94 7.287 L 125.842 7.287 L 125.842 11.258 L 116.94 11.258 L 116.94 21.187 C 116.94 22.316 117.117 23.308 117.518 24.255 C 117.874 25.202 118.407 26.06 119.076 26.737 C 119.743 27.414 120.5 27.956 121.434 28.361 C 122.324 28.767 123.304 28.947 124.372 28.947 L 126.33 28.947 L 126.33 33.189 L 124.372 33.189 C 122.637 33.189 120.991 32.918 119.522 32.331 Z M 141.951 11.077 C 140.928 11.077 139.949 11.257 139.058 11.618 C 138.168 12.024 137.412 12.519 136.787 13.198 C 136.12 13.874 135.63 14.687 135.274 15.634 C 134.873 16.581 134.696 17.575 134.696 18.659 L 134.696 33.192 L 130.022 33.192 L 130.022 18.163 C 130.022 16.494 130.333 15.005 130.911 13.606 C 131.489 12.207 132.336 11.033 133.404 9.995 C 134.427 9.003 135.717 8.236 137.186 7.65 C 138.655 7.109 140.212 6.837 141.95 6.837 L 144.753 6.837 L 144.753 11.079 L 141.95 11.079 Z M 148.982 0.722 C 149.472 0.225 150.05 0 150.807 0 C 151.474 0 152.052 0.225 152.542 0.722 C 153.033 1.219 153.255 1.85 153.255 2.527 C 153.255 3.249 153.033 3.835 152.542 4.332 C 152.052 4.829 151.474 5.1 150.807 5.1 C 150.05 5.1 149.472 4.829 148.982 4.332 C 148.491 3.835 148.225 3.249 148.225 2.527 C 148.225 1.85 148.491 1.219 148.982 0.722 Z M 153.033 33.192 L 148.448 33.192 L 148.448 7.287 L 153.033 7.287 Z M 157.786 7.287 L 162.993 7.287 L 169.268 16.447 L 175.143 7.287 L 180.083 7.287 L 172.16 19.381 L 181.134 33.192 L 175.97 33.192 L 168.955 22.359 L 161.663 33.192 L 156.724 33.192 L 165.974 19.381 L 157.785 7.287 Z M 79.307 1.621 L 84.449 1.621 L 74.923 30.514 C 74.363 32.211 72.796 33.355 71.031 33.355 C 69.248 33.355 67.668 32.188 67.126 30.466 L 60.528 9.6 L 54.139 30.296 C 53.577 32.115 51.915 33.355 50.034 33.355 C 48.183 33.355 46.54 32.156 45.954 30.377 L 36.474 1.622 L 41.616 1.622 L 50.111 27.961 L 57.366 3.949 C 57.784 2.566 59.044 1.622 60.47 1.622 C 61.888 1.622 63.143 2.556 63.568 3.928 L 70.948 27.78 L 79.309 1.622 Z" fill="rgb(237, 241, 250)" height="34.31872627273616px" id="ho39P_Mou" transform="translate(6.866 0.971)" width="181.1339430585033px"/></g></svg>